Coordinates
version=1
nRows=22
nColumns=38
inDegrees=no

Units are S.I. units (second, meters, Newtons, ...)
If the header above contains a line with 'inDegrees', this indicates whether rotational values are in degrees (yes) or radians (no).

endheader
time	pelvis_tilt	pelvis_list	pelvis_rotation	pelvis_tx	pelvis_ty	pelvis_tz	hip_flexion_r	hip_adduction_r	hip_rotation_r	knee_angle_r	ankle_angle_r	subtalar_angle_r	mtp_angle_r	hip_flexion_l	hip_adduction_l	hip_rotation_l	knee_angle_l	ankle_angle_l	subtalar_angle_l	mtp_angle_l	lumbar_extension	lumbar_bending	lumbar_rotation	arm_flex_r	arm_add_r	arm_rot_r	elbow_flex_r	pro_sup_r	wrist_flex_r	wrist_dev_r	arm_flex_l	arm_add_l	arm_rot_l	elbow_flex_l	pro_sup_l	wrist_flex_l	wrist_dev_l
2.77	-0.153971	-0.0923638	-0.108794	1.18437	0.985436	-0.441362	0.586197	0.20864	-0.396925	-0.130194	0.393816	0.630085	0	-0.272399	-0.083726	-0.253097	-1.16267	-0.0985516	0.284436	0	-0.129973	0.193109	-0.0617937	-0.99719	-0.131016	-0.263276	2.1921	1.63271	0	0	-0.1949	-0.362969	0.14638	2.16489	1.5426	0	0
2.78	-0.144353	-0.0974298	-0.10909	1.18288	0.979607	-0.440853	0.569338	0.209404	-0.405486	-0.163038	0.357485	0.60961	0	-0.240838	-0.11018	-0.264445	-1.29536	-0.0738509	0.249136	0	-0.147533	0.19527	-0.0543422	-0.936555	-0.151247	-0.243696	2.16317	1.63689	0	0	-0.229331	-0.35327	0.129251	2.11068	1.53841	0	0
2.79	-0.135989	-0.104308	-0.110657	1.18079	0.972973	-0.440302	0.563822	0.207171	-0.412175	-0.23256	0.330843	0.58552	0	-0.203359	-0.139216	-0.27327	-1.42444	-0.042693	0.217116	0	-0.164976	0.199506	-0.0442141	-0.871282	-0.174044	-0.22194	2.13151	1.63669	0	0	-0.26328	-0.339815	0.108769	2.05206	1.54102	0	0
2.8	-0.128685	-0.113175	-0.113644	1.1781	0.965879	-0.439751	0.566088	0.20364	-0.415795	-0.330028	0.319157	0.561777	0	-0.160011	-0.170097	-0.278013	-1.5474	-0.00571708	0.192195	0	-0.182743	0.206208	-0.0301285	-0.802558	-0.198106	-0.19904	2.09856	1.63271	0	0	-0.295436	-0.323402	0.0865924	1.99032	1.55036	0	0
2.81	-0.122219	-0.123992	-0.117874	1.1749	0.958733	-0.439228	0.571018	0.200782	-0.414867	-0.443347	0.325723	0.541204	0	-0.110746	-0.201963	-0.277601	-1.662	0.0359834	0.176863	0	-0.200976	0.21542	-0.0112818	-0.731763	-0.222006	-0.176323	2.06611	1.62625	0	0	-0.325137	-0.305207	0.064443	1.92737	1.56529	0	0
2.82	-0.116449	-0.136262	-0.122825	1.17136	0.95196	-0.438752	0.573171	0.200011	-0.408464	-0.559621	0.351436	0.525726	0	-0.0554453	-0.233594	-0.27146	-1.7661	0.0810301	0.171615	0	-0.219296	0.2266	0.012424	-0.660524	-0.244282	-0.155289	2.03629	1.61899	0	0	-0.352541	-0.286755	0.0439186	1.86577	1.58368	0	0
2.83	-0.111416	-0.148951	-0.127715	1.16772	0.945945	-0.438328	0.567758	0.201704	-0.396583	-0.667072	0.394397	0.516374	0	0.00601122	-0.263314	-0.259561	-1.85771	0.127914	0.174723	0	-0.236726	0.238557	0.0403485	-0.590734	-0.263517	-0.13748	2.01146	1.61259	0	0	-0.378605	-0.269817	0.0263151	1.80861	1.60273	0	0
2.84	-0.107376	-0.160562	-0.13166	1.16427	0.940994	-0.437952	0.551322	0.205118	-0.380132	-0.756362	0.450087	0.513365	0	0.0736197	-0.289073	-0.24246	-1.93503	0.175066	0.182463	0	-0.25178	0.249567	0.0712641	-0.524453	-0.278453	-0.124286	1.99402	1.60847	0	0	-0.404893	-0.256188	0.0124463	1.75922	1.61934	0	0
2.85	-0.10477	-0.169385	-0.133889	1.16128	0.937304	-0.437609	0.522086	0.208657	-0.360649	-0.821273	0.512149	0.516262	0	0.147084	-0.3087	-0.221293	-1.99655	0.220917	0.189891	0	-0.262738	0.257657	0.10364	-0.463691	-0.288159	-0.116716	1.98615	1.60765	0	0	-0.433268	-0.247399	0.00247864	1.72076	1.63066	0	0
2.86	-0.104111	-0.173832	-0.133933	1.15897	0.934967	-0.437274	0.479909	0.210372	-0.339942	-0.858751	0.573374	0.52414	0	0.225644	-0.320321	-0.197726	-2.04119	0.264015	0.192111	0	-0.268006	0.260982	0.135968	-0.410121	-0.292224	-0.115166	1.98945	1.61072	0	0	-0.465552	-0.244406	-0.00416484	1.69576	1.63465	0	0
2.87	-0.10585	-0.172767	-0.131737	1.15752	0.933984	-0.436926	0.425959	0.208476	-0.319803	-0.868474	0.626606	0.535774	0	0.307967	-0.322763	-0.173788	-2.06835	0.303196	0.185647	0	-0.266452	0.258186	0.167024	-0.36481	-0.290921	-0.119259	2.00467	1.61787	0	0	-0.503241	-0.247353	-0.00877717	1.68565	1.63053	0	0
2.88	-0.11024	-0.165709	-0.127652	1.15702	0.934291	-0.436553	0.36224	0.201725	-0.301785	-0.852203	0.665394	0.549745	0	0.392157	-0.315795	-0.151575	-2.07793	0.337678	0.16928	0	-0.25764	0.248632	0.196006	-0.328073	-0.285251	-0.127812	2.0315	1.62892	0	0	-0.547304	-0.255468	-0.0131892	1.69057	1.61896	0	0
2.89	-0.117249	-0.152864	-0.122328	1.15749	0.935779	-0.436162	0.291155	0.189585	-0.28705	-0.813152	0.684485	0.564531	0	0.475896	-0.300148	-0.13295	-2.07032	0.367126	0.144384	0	-0.241888	0.232463	0.222521	-0.299484	-0.276827	-0.138975	2.06862	1.64333	0	0	-0.598097	-0.267144	-0.0194765	1.70931	1.60186	0	0
2.9	-0.126553	-0.135015	-0.116538	1.15894	0.938304	-0.435768	0.215231	0.172215	-0.276263	-0.755547	0.680263	0.578625	0	0.556716	-0.277328	-0.119286	-2.0463	0.391654	0.114599	0	-0.220181	0.21047	0.246483	-0.278017	-0.267617	-0.150512	2.11387	1.66019	0	0	-0.655359	-0.280186	-0.0296271	1.7396	1.58187	0	0
2.91	-0.137598	-0.113318	-0.111005	1.16129	0.941695	-0.435393	0.136998	0.150312	-0.26952	-0.684373	0.651129	0.59066	0	0.632302	-0.249298	-0.111315	-2.00693	0.411744	0.0849112	0	-0.193975	0.183879	0.26795	-0.262256	-0.259631	-0.160129	2.16455	1.67824	0	0	-0.718252	-0.292146	-0.0452424	1.77848	1.56184	0	0
2.92	-0.149705	-0.0890979	-0.106266	1.1644	0.945751	-0.435054	0.0589562	0.124914	-0.266339	-0.605204	0.597705	0.599556	0	0.700773	-0.21812	-0.109105	-1.95344	0.428115	0.0603786	0	-0.164963	0.154112	0.286992	-0.250638	-0.254623	-0.165803	2.21775	1.69601	0	0	-0.785426	-0.300699	-0.0673135	1.82279	1.54428	0	0
2.93	-0.162193	-0.0636934	-0.102606	1.1681	0.950249	-0.434756	-0.0164645	0.097244	-0.265654	-0.523999	0.522747	0.604566	0	0.760837	-0.185721	-0.112217	-1.88706	0.44168	0.0452156	0	-0.134858	0.12261	0.303606	-0.241678	-0.253892	-0.166039	2.27062	1.71182	0	0	-0.855072	-0.303967	-0.0960865	1.86955	1.53109	0	0
2.94	-0.174461	-0.0383551	-0.100049	1.17215	0.954954	-0.434492	-0.0870268	0.0686212	-0.265851	-0.44677	0.430751	0.605196	0	0.811797	-0.15374	-0.119957	-1.8089	0.4535	0.0421388	0	-0.105246	0.0907165	0.317701	-0.234175	-0.25817	-0.160045	2.32057	1.72405	0	0	-0.92498	-0.300786	-0.131014	1.9162	1.52337	0	0
2.95	-0.186026	-0.0141934	-0.0984114	1.17628	0.959635	-0.434243	-0.150848	0.0403975	-0.26492	-0.379205	0.327497	0.601169	0	0.853413	-0.12346	-0.131655	-1.71983	0.464678	0.052147	0	-0.0775055	0.0596277	0.329141	-0.227364	-0.267598	-0.147815	2.36541	1.73132	0	0	-0.992597	-0.290853	-0.170795	1.9607	1.52146	0	0
2.96	-0.196515	0.00784297	-0.0973636	1.18023	0.964084	-0.433983	-0.206548	0.0139336	-0.260675	-0.326283	0.219547	0.592279	0	0.885707	-0.0957852	-0.146876	-1.62047	0.476142	0.074599	0	-0.052784	0.0303773	0.337818	-0.221007	-0.281742	-0.130121	2.4034	1.73275	0	0	-1.05513	-0.274785	-0.213497	2.0015	1.525	0	0
2.97	-0.205645	0.0269624	-0.0964946	1.18376	0.968135	-0.433681	-0.253302	-0.00941753	-0.251058	-0.29198	0.11374	0.578215	0	0.90878	-0.0712857	-0.16555	-1.51123	0.488422	0.107788	0	-0.0319956	0.00385991	0.34372	-0.215399	-0.299658	-0.108421	2.43323	1.72827	0	0	-1.10968	-0.254057	-0.256754	2.03751	1.53312	0	0
2.98	-0.213211	0.0425193	-0.0953539	1.18666	0.971667	-0.433304	-0.290775	-0.0283771	-0.234649	-0.279133	0.0166189	0.558606	0	0.922723	-0.0502097	-0.187886	-1.39253	0.501367	0.14944	0	-0.0158112	-0.0191383	0.346968	-0.211288	-0.319988	-0.0846684	2.45401	1.71869	0	0	-1.15348	-0.230829	-0.298009	2.06799	1.54464	0	0
